<svg width="3500" height="2500" viewBox="0 0 3500 2500" fill="none" xmlns="http://www.w3.org/2000/svg">
<g clip-path="url(#clip0_2_90)">
<path d="M2268.15 -1.55594L2354.68 48.3888L2441.2 -1.55594H2268.15ZM2532.56 -1.55594L2606.81 41.3029V-1.55594H2532.56ZM2628.95 -1.55594V54.079L2744.67 120.88L2860.38 54.079V-1.55594H2628.95ZM2882.52 -1.55594V41.3029L2956.77 -1.55594H2882.52ZM3048.14 -1.55594L3134.65 48.3888L3221.18 -1.55594H3048.14ZM3312.55 -1.55594L3386.8 41.3029V-1.55594H3312.55ZM3408.94 -1.55594V54.079L3500.17 106.751V-1.55594H3408.94ZM2492.54 0.870399V127.965L2606.81 193.95V66.855L2492.54 0.870399ZM2216.83 0.870399L2102.54 66.8337V193.95L2216.83 127.965V0.870399ZM2996.8 0.870399L2882.52 66.8337V193.95L2996.8 127.965V0.870399ZM3272.52 0.870399V127.965L3386.8 193.95V66.8337L3272.52 0.870399ZM2238.97 7.11878V115.189L2332.55 61.1649L2238.97 7.11878ZM2470.4 7.11878L2376.82 61.1649L2470.4 115.189V7.11878ZM3018.93 7.11878V115.189L3112.51 61.1649L3018.93 7.11878ZM3250.38 7.11878L3156.81 61.1649L3250.38 115.189V7.11878ZM2354.68 73.9409L2238.97 140.741V284.07L2354.68 350.892L2470.4 284.07V140.741L2354.68 73.9409ZM3134.65 73.9409L3018.93 140.741V284.07L3134.65 350.892L3250.38 284.07V140.741L3134.65 73.9409ZM2628.95 79.6311V187.68L2722.53 133.656L2628.95 79.6311ZM2860.38 79.6311L2766.8 133.656L2860.38 187.68V79.6311ZM3408.94 79.6311V187.68L3500.17 134.987V132.303L3408.94 79.6311ZM2744.67 146.432L2634.6 209.99L2638.81 212.417L2634.6 214.843L2744.67 278.401L2854.73 214.843L2850.53 212.417L2854.73 209.99L2744.67 146.432ZM2216.83 153.539L2114.83 212.417L2216.83 271.294V153.539ZM2492.54 153.539V271.294L2594.53 212.417L2492.54 153.539ZM2996.8 153.539L2894.82 212.417L2996.8 271.294V153.539ZM3272.52 153.539V271.294L3374.49 212.417L3272.52 153.539ZM3500.17 160.561L3414.58 209.99L3500.17 259.419V160.561ZM3386.8 226.03L3272.52 292.015V296.867V419.103V423.96L3386.8 357.991V353.121V230.883V226.03ZM2102.54 230.883V357.978L2216.83 423.96V296.867L2102.54 230.883ZM2606.81 230.883L2492.54 296.867V423.96L2606.81 357.991V230.883ZM2882.52 230.883V357.991L2996.8 423.96V296.867L2882.52 230.883ZM3408.94 232.279V340.349L3500.17 287.656V284.972L3408.94 232.279ZM2628.95 237.153V345.202L2722.53 291.177L2628.95 237.153ZM2860.38 237.153L2766.8 291.177L2860.38 345.202V237.153ZM2744.67 303.953L2628.95 370.762V514.095L2744.69 580.906L2860.4 514.095V370.762L2744.67 303.953ZM2238.97 309.644V417.701L2332.55 363.674L2238.97 309.644ZM2470.4 309.644L2376.82 363.674L2470.4 417.701V309.644ZM3018.93 309.644V417.701L3112.53 363.674L3018.93 309.644ZM3250.38 309.644L3156.79 363.674L3250.38 417.701V309.644ZM3500.17 313.229L3408.94 365.905V509.238L3500.17 561.921V313.229ZM2354.68 376.446L2244.6 440.007L2354.68 503.554L2464.75 440.007L2354.68 376.446ZM3134.65 376.446L3024.58 440.007L3134.67 503.554L3244.74 440.007L3134.65 376.446ZM3386.8 378.688L3284.8 437.572L3386.8 496.455V378.688ZM2606.81 383.547L2504.82 442.429L2606.81 501.31V383.547ZM2882.52 383.547V501.31L2984.51 442.429L2882.52 383.547ZM2996.8 456.04L2882.52 522.023V649.129V653.986L2996.8 588.003V583.148V456.04ZM3272.52 456.04V583.148L3386.8 649.129V522.033L3272.52 456.04ZM2492.54 460.897V588.003L2606.81 653.986V526.88L2492.54 460.897ZM3018.95 462.312V570.364L3112.53 516.339L3018.95 462.312ZM3250.38 462.312L3156.81 516.339L3250.38 570.364V462.312ZM3134.67 529.124L3018.93 595.933V739.252L3134.67 806.064L3250.38 739.252V595.933L3134.67 529.124ZM3408.94 534.807V642.859L3500.17 590.187V587.477L3408.94 534.807ZM2628.95 539.665V647.716L2722.53 593.689L2628.95 539.665ZM2860.38 539.665L2766.8 593.689L2860.38 647.716V539.665ZM2744.67 606.474L2634.6 670.021L2744.67 733.569L2854.73 670.021L2744.67 606.474ZM2996.8 608.705L2894.82 667.599L2996.8 726.481V608.705ZM3272.52 608.705V726.481L3374.52 667.599L3272.52 608.705ZM3500.17 615.743L3414.58 665.164L3418.79 667.588L3414.58 670.021L3500.17 719.442V615.743ZM2606.81 686.055L2492.54 752.037V879.145L2606.81 813.163V686.055ZM2882.52 686.055V813.163L2996.8 879.145V752.037L2882.52 686.055ZM3386.8 686.055L3272.52 752.037V879.145L3386.8 813.163V686.055ZM2628.95 692.327V800.378L2722.53 746.353L2628.95 692.327ZM2860.38 692.327L2766.8 746.353L2860.38 800.378V692.327ZM3408.94 692.327V800.378L3500.17 747.695V745.011L3408.94 692.327ZM2744.67 759.136L2628.95 825.947V969.28L2744.67 1036.09L2860.38 969.28V825.947L2744.67 759.136ZM3018.93 764.822V872.873L3112.53 818.846L3018.93 764.822ZM3250.38 764.822L3156.81 818.846L3250.38 872.873V764.822ZM3500.17 773.265L3408.94 825.947V969.28L3500.17 1021.96V773.265ZM3134.67 831.631L3024.58 895.179L3028.79 897.601L3024.58 900.036L3134.67 963.583L3244.74 900.036L3240.51 897.601L3244.74 895.179L3134.67 831.631ZM2606.81 838.73L2504.82 897.614L2606.81 956.495V838.73ZM2882.52 838.73V956.495L2984.51 897.614L2882.52 838.73ZM3386.8 838.73L3284.8 897.614L3386.8 956.495V838.73ZM2492.54 916.082V1043.18L2606.81 1109.16V982.052L2492.54 916.082ZM2996.8 916.082L2882.52 982.052V1109.16L2996.8 1043.18V916.082ZM3272.52 916.082V1043.18L3386.8 1109.16V982.052L3272.52 916.082ZM3018.95 922.341V1030.41L3112.53 976.366L3018.95 922.341ZM3250.38 922.341L3156.81 976.366L3250.38 1030.41V922.341ZM3134.67 989.15L3018.93 1055.96V1199.29L3134.67 1266.1L3250.38 1199.29V1055.96L3134.67 989.15ZM2628.95 994.836V1102.9L2722.55 1048.86L2628.95 994.836ZM2860.38 994.836L2766.8 1048.86L2860.38 1102.9V994.836ZM3408.94 994.836V1102.9L3500.17 1050.21V1047.52L3408.94 994.836ZM2744.67 1061.65L2634.6 1125.19L2744.67 1188.75L2854.76 1125.19L2744.67 1061.65ZM2996.8 1068.74L2894.82 1127.63L2996.8 1186.51V1068.74ZM3272.52 1068.74V1186.51L3374.52 1127.63L3272.52 1068.74ZM3500.17 1075.77L3414.58 1125.19L3500.17 1174.62V1075.77ZM3386.8 1141.24L3272.52 1207.22V1334.32V1339.17L3386.8 1273.19V1268.35V1141.24ZM2882.52 1146.09V1273.19L2996.8 1339.17V1212.08L2882.52 1146.09ZM3408.94 1147.5V1255.56L3500.17 1202.87V1200.18L3408.94 1147.5ZM3018.93 1224.85V1332.91L3112.53 1278.89L3018.93 1224.85ZM3250.38 1224.85L3156.81 1278.89L3250.38 1332.91V1224.85ZM3500.17 1228.44L3408.94 1281.12V1424.45L3500.17 1477.13V1228.44ZM3134.67 1291.66L3024.58 1355.22L3134.67 1418.77L3244.74 1355.22L3134.67 1291.66ZM3386.8 1293.9L3284.8 1352.79L3386.8 1411.67V1293.9ZM2996.82 1371.25L2882.52 1437.24V1564.34L2996.82 1498.36V1371.25ZM3272.52 1371.25V1498.36L3386.8 1564.34V1437.25L3272.52 1371.25ZM3018.95 1377.53V1485.58L3112.53 1431.55L3018.95 1377.53ZM3250.38 1377.53L3156.81 1431.55L3250.38 1485.58V1377.53ZM3134.67 1444.34L3018.95 1511.14V1654.47L3134.67 1721.28L3250.38 1654.47V1511.14L3134.67 1444.34ZM3408.94 1450.02V1558.07L3500.17 1505.4V1502.69L3408.94 1450.02ZM2996.82 1523.92L2894.82 1582.81L2996.8 1641.69L2996.82 1523.92ZM3272.52 1523.92V1641.69L3374.52 1582.81L3272.52 1523.92ZM3500.17 1530.95L3414.58 1580.38L3418.79 1582.8L3414.58 1585.23L3500.17 1634.65V1530.95ZM2882.52 1601.27V1728.37L2996.8 1794.36V1667.25L2882.52 1601.27ZM3386.8 1601.27L3272.52 1667.25V1794.36L3386.8 1728.37V1601.27ZM3408.94 1607.54V1715.59L3500.17 1662.91V1660.22L3408.94 1607.54ZM3018.93 1680.03V1788.08L3112.53 1734.06L3018.93 1680.03ZM3250.38 1680.03L3156.81 1734.06L3250.38 1788.08V1680.03ZM3500.17 1688.48L3408.94 1741.16V1884.49L3500.17 1937.17V1688.48ZM3134.67 1746.84L3024.58 1810.39L3134.67 1873.94L3244.74 1810.39L3134.67 1746.84ZM3386.8 1753.94L3284.8 1812.83L3386.8 1871.71V1753.94ZM3272.52 1831.29V1958.39L3386.8 2024.37V1897.26L3272.52 1831.29ZM3408.94 1910.05V2018.11L3500.17 1965.43V1962.72L3408.94 1910.05ZM3500.17 1990.98L3414.58 2040.4L3418.79 2042.84L3414.58 2045.26L3500.17 2094.7V1990.98ZM3386.8 2061.31L3272.52 2127.29V2254.39L3386.8 2188.4V2061.31ZM3408.94 2067.57V2175.63L3500.17 2122.94V2120.25L3408.94 2067.57ZM3500.17 2148.51L3408.94 2201.19V2344.52L3500.17 2397.2V2148.51ZM3134.67 2211.73L3024.58 2275.29L3134.67 2338.84L3244.74 2275.28L3134.67 2211.73ZM3386.8 2213.97L3284.8 2272.85L3386.8 2331.74V2213.97ZM2996.82 2291.32L2882.52 2357.3V2484.41L2996.82 2418.43V2291.32ZM3272.52 2291.32V2418.43L3386.8 2484.41V2357.32L3272.52 2291.32ZM3018.95 2297.59V2405.64L3112.53 2351.62L3018.95 2297.59ZM3250.38 2297.59L3156.81 2351.62L3250.38 2405.64V2297.59ZM3134.67 2364.39L3018.95 2431.21V2497.54H3250.38V2431.21L3134.67 2364.39ZM3408.94 2370.09V2478.14L3500.17 2425.47V2422.76L3408.94 2370.09ZM2996.82 2443.98L2904.03 2497.54H2996.82V2443.98ZM3272.52 2443.98V2497.54H3365.28L3272.52 2443.98ZM3500.17 2451.02L3419.61 2497.54H3500.17V2451.02Z" fill="url(#paint0_linear_2_90)"/>
</g>
<defs>
<linearGradient id="paint0_linear_2_90" x1="0" y1="0" x2="1" y2="1" gradientUnits="objectBoundingBox">
    <stop offset="0%" stop-color="#E86BA3"/>
    <stop offset="100%" stop-color="#7A6AF2"/>
</linearGradient><clipPath id="clip0_2_90">
<rect width="3500" height="2500" fill="white"/>
</clipPath>
</defs>
</svg>
